:SAMPLES-PER-SECOND 30
:FULLY-SPECIFIED
:DEGREES
406
root  79.4099 38.6466 5.58297 171.124 70.0651 171.2
RightUpLeg  -14.9919 -7.96561 -4.81219
RightLeg  16.0019 10.2833 2.8973
RightFoot  1.74202 0.204099 -1.67958
RightToes  -1.74624e-010 0 -3.6325e-017
Spine  5.24294 -1.28292 9.62923
Spine1  3.06495 -0.0643437 -3.45988
HEad  -22.003 -7.04905 -3.15075
LeftShoulder1  -0.705435 5.14905 -36.6448
LeftArm  -4.42906 1.1268 -41.5518
LeftForeArm  48.0269 -1.15246 -8.84814
LeftHand  -0.151623 9.36202 -2.86598
RightShoulder  -1.14941 -6.63115 30.232
RightArm  26.8929 4.42094 42.4237
RightForeArm  6.48511 25.8151 5.02007
RightHand  -0.0631641 4.17209 -1.00294
LeftUpLeg  5.46681 4.65653 1.64768
LeftLeg  28.1633 -4.4066 -2.21397
LeftFoot  -6.67795 0.30888 -6.6767
LeftToes  -3.96543e-010 8.93632e-011 -2.58531e-011
407
root  79.8175 38.7706 5.74346 173.24 65.8399 173.242
RightUpLeg  -13.3727 -10.0693 -4.97623
RightLeg  15.122 8.07529 2.7225
RightFoot  1.15876 0.239108 -2.10175
RightToes  -1.74624e-010 0 -3.6325e-017
Spine  6.28701 -1.4039 10.3893
Spine1  2.88677 -0.0529412 -3.55931
HEad  -22.272 -7.63065 -3.06514
LeftShoulder1  -0.681668 5.09796 -36.5221
LeftArm  -3.61851 4.30053 -38.5026
LeftForeArm  45.3413 -3.25894 -9.3577
LeftHand  -0.110651 8.82687 -1.88348
RightShoulder  -1.13504 -6.61254 29.9879
RightArm  25.8039 6.58585 40.8436
RightForeArm  6.37275 30.7846 6.38811
RightHand  -0.173535 5.50189 -2.18162
LeftUpLeg  3.75157 6.80567 3.49575
LeftLeg  28.5075 -1.00264 -0.257891
LeftFoot  -5.97911 0.286311 -5.34396
LeftToes  -3.96543e-010 8.93632e-011 -2.58531e-011
408
root  80.2408 38.9058 5.9778 174.293 60.4791 174.446
RightUpLeg  -11.0441 -11.55 -5.59213
RightLeg  13.8467 4.21862 2.46628
RightFoot  0.263106 0.150371 -1.46379
RightToes  -1.74624e-010 0 -3.6325e-017
Spine  6.77591 -1.55511 9.79198
Spine1  3.685 -0.377769 -2.47516
HEad  -25.5587 -4.53151 -3.20747
LeftShoulder1  -0.616127 4.95635 -36.2068
LeftArm  -1.25529 5.69886 -35.671
LeftForeArm  39.5896 -5.06047 -10.3325
LeftHand  -0.0467866 8.01158 -0.198374
RightShoulder  -1.16769 -6.69124 30.1113
RightArm  22.0371 7.61546 38.8834
RightForeArm  8.5589 35.5775 7.52798
RightHand  -0.17246 5.55315 -2.12137
LeftUpLeg  2.12977 8.6878 5.07832
LeftLeg  27.7592 1.05501 0.94116
LeftFoot  -7.10034 0.247096 -5.49869
LeftToes  -3.96543e-010 8.93632e-011 -2.58531e-011
409
root  80.658 39.0109 6.24202 174.804 54.5808 175.286
RightUpLeg  -8.62102 -12.0225 -6.19739
RightLeg  12.7456 -0.96788 2.03561
RightFoot  -0.54617 0.124577 -1.35895
RightToes  -1.74624e-010 0 -3.6325e-017
Spine  7.85187 -1.6836 7.83489
Spine1  3.47344 -1.11975 0.390845
HEad  -26.8084 -1.26277 -4.28176
LeftShoulder1  -0.634663 4.99971 -36.182
LeftArm  0.3803 7.21944 -33.7226
LeftForeArm  35.3851 -7.95029 -9.99286
LeftHand  -0.0690547 8.82862 -0.637484
RightShoulder  -1.09688 -6.55812 29.3887
RightArm  19.0049 7.48545 37.0348
RightForeArm  7.30364 39.0199 8.62888
RightHand  -0.336144 6.47052 -3.63911
LeftUpLeg  0.427349 11.3458 6.23734
LeftLeg  26.2562 0.985539 0.868314
LeftFoot  -7.71354 0.190421 -4.5765
LeftToes  -3.96543e-010 8.93632e-011 -2.58531e-011
410
root  80.9934 39.1414 6.43007 175.524 49.1802 175.872
RightUpLeg  -6.56032 -11.9403 -6.50513
RightLeg  10.9048 -6.22909 1.63236
RightFoot  -0.708974 0.0879181 -0.99172
RightToes  -1.74624e-010 0 -3.6325e-017
Spine  8.12018 -1.52056 7.64926
Spine1  3.80612 -1.11155 0.765277
HEad  -27.8236 1.6844 -5.72023
LeftShoulder1  -0.507595 4.72104 -35.5319
LeftArm  1.61488 7.7628 -33.0971
LeftForeArm  31.5024 -10.6963 -9.09389
LeftHand  -0.0886919 9.38007 -0.955647
RightShoulder  -1.12435 -6.61149 29.6592
RightArm  15.8641 7.07415 34.8049
RightForeArm  7.40337 41.3485 9.37644
RightHand  -0.323243 6.80846 -3.41506
LeftUpLeg  -1.63615 15.1439 6.40787
LeftLeg  23.7124 0.251126 0.449205
LeftFoot  -8.38938 0.1762 -4.86726
LeftToes  -3.96543e-010 8.93632e-011 -2.58531e-011
411
root  81.3804 39.2556 6.51085 176.266 43.7499 176.033
RightUpLeg  -4.67852 -12.0729 -6.8568
RightLeg  8.91757 -11.384 1.49857
RightFoot  -0.944453 -0.0144244 0.0851249
RightToes  -1.74624e-010 0 -3.6325e-017
Spine  7.9944 -1.23519 8.69132
Spine1  2.91692 -0.554311 -0.643249
HEad  -27.3361 5.66274 -8.13516
LeftShoulder1  -0.549464 4.82817 -35.2885
LeftArm  2.77777 7.90389 -32.2764
LeftForeArm  28.4889 -12.8812 -8.18123
LeftHand  -0.0283966 7.97099 0.536378
RightShoulder  -1.13689 -6.64606 29.6591
RightArm  13.3707 4.5616 33.1082
RightForeArm  7.97127 41.8345 9.5071
RightHand  -0.253052 6.49953 -2.81098
LeftUpLeg  -3.61513 20.0192 5.39973
LeftLeg  20.1974 0.0377423 0.410816
LeftFoot  -7.72994 0.19228 -4.65853
LeftToes  -3.96543e-010 8.93632e-011 -2.58531e-011
412
root  81.7612 39.3826 6.63943 177.311 38.2669 175.882
RightUpLeg  -3.70717 -12.0254 -6.94049
RightLeg  7.19888 -16.8684 1.34397
RightFoot  -0.888414 -0.0363601 0.327787
RightToes  -1.74624e-010 0 -3.6325e-017
Spine  7.25499 -0.742767 7.86528
Spine1  2.41944 -0.316085 -0.207432
HEad  -26.8725 9.19336 -10.8564
LeftShoulder1  -0.480367 4.67377 -34.8899
LeftArm  2.27797 7.72023 -32.6838
LeftForeArm  28.3743 -14.2486 -7.30269
LeftHand  -0.0210505 7.20729 1.36808
RightShoulder  -1.17181 -6.71617 29.9639
RightArm  11.9621 2.64599 31.8149
RightForeArm  7.98518 40.8028 9.16339
RightHand  -0.274827 6.64016 -2.99477
LeftUpLeg  -5.95354 26.4971 3.452
LeftLeg  16.3856 1.58904 0.539122
LeftFoot  -6.70625 0.175271 -3.33917
LeftToes  -3.96543e-010 8.93632e-011 -2.58531e-011
413
root  81.9587 39.4836 6.59649 177.679 33.0612 175.768
RightUpLeg  -2.15956 -12.726 -7.77239
RightLeg  5.95367 -21.3148 2.01088
RightFoot  -1.05191 -0.0644858 0.654847
RightToes  -1.74624e-010 0 -3.6325e-017
Spine  7.15175 -0.724094 8.16273
Spine1  1.86081 -0.207025 -0.919327
HEad  -24.9383 12.2105 -14.0547
LeftShoulder1  -0.533722 4.79608 -35.1289
LeftArm  3.83579 7.72675 -32.958
LeftForeArm  23.6736 -16.6124 -6.2189
LeftHand  -0.0230127 6.50777 2.3848
RightShoulder  -1.07965 -6.50228 29.4753
RightArm  13.0174 1.33548 31.6888
RightForeArm  6.40527 37.2701 8.15896
RightHand  -0.292511 6.66475 -3.14764
LeftUpLeg  -6.54999 24.3687 1.53104
LeftLeg  12.5565 14.5667 0.824885
LeftFoot  -5.73239 0.136408 -2.04915
LeftToes  -3.96543e-010 8.93632e-011 -2.58531e-011
414
root  82.2147 39.5604 6.47046 178.62 28.3149 175.193
RightUpLeg  -1.47694 -13.3124 -8.6844
RightLeg  4.78226 -25.4604 2.76051
RightFoot  -1.97604 -0.213737 2.43839
RightToes  -1.74624e-010 0 -3.6325e-017
Spine  5.1731 -0.561942 6.82582
Spine1  2.66191 -0.318371 -0.483786
HEad  -24.6029 16.0715 -17.1411
LeftShoulder1  -0.66568 5.11466 -35.1261
LeftArm  8.89099 8.53545 -33.3818
LeftForeArm  16.3197 -20.7463 -4.71296
LeftHand  -0.0446144 9.9273 0.237931
RightShoulder  -0.9592 -6.18964 29.1504
RightArm  16.3384 1.37836 32.1868
RightForeArm  3.19117 31.9384 6.85707
RightHand  -0.347879 7.00343 -3.55459
LeftUpLeg  -6.88541 10.6696 -0.568759
LeftLeg  8.31721 39.4792 0.864444
LeftFoot  -3.55375 0.177089 -2.27574
LeftToes  -3.96543e-010 8.93632e-011 -2.58531e-011
415
root  82.4943 39.5315 6.38915 -179.263 23.0757 175.978
RightUpLeg  -1.88942 -13.1346 -7.90089
RightLeg  4.79652 -31.0011 3.02259
RightFoot  -2.81812 -0.26374 3.27552
RightToes  -1.74624e-010 0 -3.6325e-017
Spine  3.09834 -0.445539 5.83045
Spine1  2.55302 -0.612309 0.823762
HEad  -24.1152 18.9103 -19.0931
LeftShoulder1  -0.723332 5.25299 -35.1277
LeftArm  10.6819 9.75029 -33.8303
LeftForeArm  14.6707 -23.5214 -4.27394
LeftHand  0.00481994 7.59155 2.09793
RightShoulder  -0.924207 -6.09301 29.1092
RightArm  21.6142 1.21384 33.0709
RightForeArm  1.24091 26.2285 5.55478
RightHand  -0.109132 6.13734 -1.44614
LeftUpLeg  -9.05855 7.16853 -2.63461
LeftLeg  6.94621 49.8414 2.26472
LeftFoot  -1.28224 0.16541 -1.83148
LeftToes  -3.96543e-010 8.93632e-011 -2.58531e-011
416
root  82.6862 39.4465 6.0962 -178.172 18.4341 176.843
RightUpLeg  -1.44105 -13.7688 -7.67679
RightLeg  5.77023 -34.7527 3.41376
RightFoot  -3.76853 -0.279 3.82022
RightToes  -1.74624e-010 0 -3.6325e-017
Spine  0.718061 -0.243157 6.98587
Spine1  3.47578 -0.243987 -0.614875
HEad  -22.8265 20.8576 -19.8668
LeftShoulder1  -0.628095 5.07173 -33.9124
LeftArm  6.56724 11.6881 -36.1437
LeftForeArm  19.6046 -25.7675 -4.47263
LeftHand  0.00833639 8.30314 1.78443
RightShoulder  -0.970116 -6.16187 29.9342
RightArm  26.8533 0.700133 33.8607
RightForeArm  -0.763297 20.982 5.12992
RightHand  -0.248197 5.85277 -2.87148
LeftUpLeg  -9.66568 5.00643 -4.59848
LeftLeg  6.02123 51.1591 3.78061
LeftFoot  0.539828 -0.0864043 0.849803
LeftToes  -3.96543e-010 8.93632e-011 -2.58531e-011
417
root  82.7925 39.3055 5.68733 -178.139 13.5871 177.943
RightUpLeg  0.375297 -17.9116 -8.08634
RightLeg  7.36165 -35.1115 4.08867
RightFoot  -5.40379 -0.261449 4.27688
RightToes  -1.74624e-010 0 -3.6325e-017
Spine  -1.42114 -0.0572734 8.6748
Spine1  5.05782 0.124512 -2.29886
HEad  -21.4946 22.2501 -20.3882
LeftShoulder1  -0.636713 5.09924 -33.7111
LeftArm  5.29561 12.2739 -37.4821
LeftForeArm  23.1042 -26.8947 -4.54202
LeftHand  -0.0445359 6.77362 -0.440146
RightShoulder  -0.938781 -6.06369 30.0213
RightArm  26.5629 -0.834114 35.0296
RightForeArm  5.6569 16.5299 6.37553
RightHand  -0.111973 4.41995 -1.6103
LeftUpLeg  -8.91842 3.27737 -5.63837
LeftLeg  5.3675 45.8152 4.81553
LeftFoot  0.330858 -0.554618 5.36541
LeftToes  -3.96543e-010 8.93632e-011 -2.58531e-011
